<svg xmlns="http://www.w3.org/2000/svg" height="186" width="126"><path stroke="none" fill="#000" d="M 10.942 0 h 27.355 a 10.942 10.942 90 0 1 10.942 10.942 v 164.13 a 10.942 10.942 90 0 1 -10.942 10.942 h -27.355 a 10.942 10.942 90 0 1 -10.942 -10.942 v -164.13 a 10.942 10.942 90 0 1 10.942 -10.942 z M 87.536 0 h 27.355 a 10.942 10.942 90 0 1 10.942 10.942 v 164.13 a 10.942 10.942 90 0 1 -10.942 10.942 h -27.355 a 10.942 10.942 90 0 1 -10.942 -10.942 v -164.13 a 10.942 10.942 90 0 1 10.942 -10.942 z"/></svg>